<?xml version="1.0" standalone="no"?>
<!DOCTYPE svg PUBLIC "-//W3C//DTD SVG 20010904//EN"
 "http://www.w3.org/TR/2001/REC-SVG-20010904/DTD/svg10.dtd">
<svg version="1.0" xmlns="http://www.w3.org/2000/svg"
 width="377.000000pt" height="377.000000pt" viewBox="0 0 377.000000 377.000000"
 preserveAspectRatio="xMidYMid meet">
<metadata>
Created by potrace 1.11, written by Peter Selinger 2001-2013
</metadata>
<g transform="translate(0.000000,377.000000) scale(0.100000,-0.100000)"
fill="#000000" stroke="none">
<path d="M3760 1280 l0 -1270 -1762 -3 -1763 -2 1768 -3 1767 -2 0 1275 c0
701 -2 1275 -5 1275 -3 0 -5 -571 -5 -1270z"/>
<path d="M520 2360 c0 -29 1 -30 50 -30 44 0 50 -3 56 -24 3 -13 72 -251 153
-528 l148 -503 174 0 173 0 155 528 154 527 49 0 c47 0 48 1 48 30 l0 30 -160
0 -160 0 0 -30 0 -29 73 -3 73 -3 -135 -458 c-74 -251 -136 -455 -138 -453 -2
2 -64 208 -137 457 l-133 454 74 3 73 3 0 29 0 30 -295 0 -295 0 0 -30z m374
-47 c3 -10 64 -223 137 -473 72 -250 135 -467 140 -482 l8 -28 -98 0 -97 0
-142 493 c-79 270 -143 495 -142 500 0 4 42 7 94 7 82 0 95 -2 100 -17z"/>
<path d="M2190 2360 c0 -30 1 -30 55 -30 l55 0 0 -500 0 -500 -55 0 c-54 0
-55 0 -55 -30 l0 -30 275 0 275 0 0 30 c0 30 -1 30 -55 30 l-55 0 0 205 0 205
208 0 208 0 72 73 72 72 0 191 0 190 -63 62 -63 62 -437 0 -437 0 0 -30z m370
-530 l0 -500 -95 0 -95 0 0 500 0 500 95 0 95 0 0 -500z m300 235 l0 -265
-115 0 -115 0 0 265 0 265 115 0 115 0 0 -265z m212 218 l48 -47 0 -161 0
-161 -59 -58 c-51 -50 -62 -57 -92 -54 l-34 3 -3 263 -2 262 47 0 c43 0 52 -4
95 -47z"/>
<path d="M4 390 c0 -52 1 -74 3 -47 2 26 2 68 0 95 -2 26 -3 4 -3 -48z"/>
</g>
</svg>
